<svg width="100" height="100" viewBox="0 0 100 100" fill="none" xmlns="http://www.w3.org/2000/svg">
<g clip-path="url(#clip0_2_2)">
<rect width="100" height="100" fill="white"/>
<rect width="100" height="100" fill="white"/>
<path d="M9 26.8554H28.4013V32.5616H9V26.8554ZM9 16.2556H28.4013V21.9618H9V16.2556ZM43.815 37.3722H9V43.0784H42.5112C46.1771 43.0784 54.7399 43.1614 57.9181 48.3005V45.1188C56.3688 40.0628 51.8038 37.3722 43.815 37.3722ZM43.8946 47.972H9V53.6782H42.5112C50.6625 53.6782 55.7982 54.0068 57.9181 55.148V52.62C56.2893 48.6256 49.4417 47.972 43.8946 47.972ZM43.815 74.8778H9V69.175H42.5112C46.1771 69.175 54.7399 69.092 57.9181 63.9564V67.138C56.3688 72.1907 51.8038 74.8847 43.815 74.8847V74.8778ZM43.8946 64.278H9V58.5718H42.5112C50.6625 58.5718 55.7982 58.2467 57.9181 57.1054V59.63C56.2893 63.6278 49.4417 64.278 43.8946 64.278ZM66.398 84.7444H92V81.2377H67.1346C64.9316 81.2377 59.713 81.1581 57.8386 78.139V80.0964C58.7377 83.1121 61.5044 84.7444 66.398 84.7444ZM66.3184 78.3015H91.9205V74.7983H67.1346C62.158 74.7983 59.0628 74.6357 57.8386 73.8991V75.4484C58.8173 77.8969 62.9742 78.3015 66.3184 78.3015Z" fill="black"/>
</g>
<defs>
<clipPath id="clip0_2_2">
<rect width="100" height="100" fill="white"/>
</clipPath>
</defs>
</svg>
