<svg width="100" height="100" viewBox="0 0 100 100" fill="none" xmlns="http://www.w3.org/2000/svg">
<g clip-path="url(#clip0_2_2)">
<rect width="100" height="100" fill="white"/>
<rect width="100" height="100" fill="white"/>
<g clip-path="url(#clip1_2_2)">
<path d="M93 73.8325C91.7629 74.3004 90.3973 74.2994 89.1609 73.8296C87.9245 73.3598 86.9028 72.4538 86.2885 71.2825L74.0698 54.3852L72.299 52.0229L58.1217 71.3038C57.5443 72.4259 56.578 73.2994 55.4034 73.7609C54.2289 74.2224 52.9264 74.2403 51.7396 73.8113L70.0075 49.3029L53.0146 27.164C54.2364 26.7236 55.5727 26.7178 56.7984 27.1474C58.024 27.5771 59.0642 28.4159 59.7437 29.5227L72.4087 46.629L85.1446 29.5935C85.7264 28.4913 86.6929 27.6413 87.8605 27.2051C89.028 26.769 90.3151 26.777 91.4771 27.2277L84.8825 35.9792L75.9504 47.6065C75.7024 47.8277 75.5039 48.0989 75.368 48.4023C75.2321 48.7056 75.1618 49.0343 75.1618 49.3667C75.1618 49.6991 75.2321 50.0277 75.368 50.3311C75.5039 50.6344 75.7024 50.9056 75.9504 51.1269L92.9646 73.836L93 73.8325ZM8.00708 48.9983L9.49458 41.6494C13.5817 27.1179 30.2417 21.0723 41.7025 30.0681C48.414 35.3417 50.0892 42.8075 49.7598 51.2225H11.9525C11.3398 66.2498 22.1844 75.3235 36.05 70.6875C38.2977 69.8784 40.3097 68.5244 41.9056 66.7467C43.5016 64.9691 44.6316 62.8233 45.1946 60.5017C45.9277 58.1429 47.1354 57.7392 49.3525 58.4192C48.983 61.2964 47.966 64.0523 46.3777 66.4797C44.7895 68.9071 42.6716 70.9428 40.1831 72.4335C36.0727 74.6819 31.3567 75.573 26.7093 74.9795C22.0619 74.3861 17.7212 72.3383 14.3077 69.1292C10.9326 65.3303 8.89277 60.5318 8.49937 55.4654C8.49937 54.6331 8.21604 53.854 8.02479 53.1067C8.00755 51.7385 7.99928 50.3702 8 49.0019L8.00708 48.9983ZM11.9985 47.9854H46.1898C45.9773 37.0913 39.1029 29.3633 29.9335 29.2925C19.7265 29.1508 12.4235 36.7088 11.9737 47.9358L11.9985 47.9854Z" fill="black"/>
</g>
</g>
<defs>
<clipPath id="clip0_2_2">
<rect width="100" height="100" fill="white"/>
</clipPath>
<clipPath id="clip1_2_2">
<rect width="85" height="85" fill="white" transform="translate(8 8)"/>
</clipPath>
</defs>
</svg>
